/* XPM */
static char * loco_xpm[] = {
"80 80 6 1",
" 	c #FFFFFFFFFFFF",
".	c #FFFFFFFF0000",
"X	c #000000000000",
"o	c #0000FFFF0000",
"O	c #00000000FFFF",
"+	c #FFFF00000000",
"                                                                                ",
"                                                                                ",
"                                                                                ",
"                                                                                ",
"                                                                                ",
"                                                  .                             ",
"                                                  .                             ",
"                                                  .                             ",
"                                                  .                             ",
"                                           .      .     .                       ",
"                                            .     ..   ..                       ",
"                                            ..   ...  ..                        ",
"                                             ..  ...  ..                        ",
"                                              .. ... ..                         ",
"                                           .. .........                         ",
"                                           ...........                          ",
"                 XXX                       ....................                 ",
"      XXXXXXXXXXXXXX                        ................                    ",
"     XXXXXXXXXXXXXXXXX                      ..............                      ",
"     XXXXXXXXXXXXXXXXXXX                   .............                        ",
"     XXXX      XXXXXXXXXX                  ..............                       ",
"    XXXX         XXXXXXXXXX               .................                     ",
"    XXXX         XXX XXXXXX              ....  ..............                   ",
"    XXXX         XXX  XXXXXX                   ........                         ",
"    XXXX         XXX    XXXXX                  ...  ....                        ",
"    XXXXX        XXX     XXXX                  ..     ..                        ",
"     XXXXXXXX    XXX     XXXXX                 ..       .                       ",
"     XXXXXXXX    XXX      XXXX                 .                                ",
"      XXXXXXX    XXX       XXXX                                                 ",
"                 XXX       XXXX                                                 ",
"                 XXX       XXXX                                                 ",
"                 XXX        XXX                                                 ",
"                 XXX        XXX                                                 ",
"                 XXX        XXX                                                 ",
"                 XXX        XXX    XXXXXXX                                      ",
"                XXXX        XXX XXXXXXXXXX                                      ",
"                XXXX        XXXXXXXXXXXXXX XXX                                  ",
"                XXXX        XXXXXXXXXXXXX XXXX                                  ",
"                XXX         XXXXXXX XXXX XXXXX                                  ",
"                XXX         XXXXXX  XXXXXXXXXX      XXXXXXX                     ",
"               XXXX         XXXXX   XXXXXXXXX     XXXXXXXXX                     ",
"               XXXX         XXXX     XXXXXXX     XXXXXXXXXX                     ",
"               XXX          XXXX     XXXXXX     XXXXXXXXXXX                     ",
"  XXXXXXXXXX  XXXX         XXXX      XXXXX      XXXXXXXXXXX         XXXXXXX     ",
" XXXXXXXXXXXXXXXXX         XXXX     XXXXX      XXXXXX  XXXX       XXXXXXXXX     ",
" XXXXXXXXXXXXXXXX        XXXXXX    XXXXX      XXXXX    XXX      XXXXXXXXXXXXX   ",
" XXXX    XXXXXXXXX      XXXXXX     XXXX      XXXXX    XXXX    XXXXXXXXXXXXXXX   ",
" XXXX      XXXXXXXXXX XXXXXXX      XXXX     XXXXXX   XXXXX   XXXXXXXX  XXXXXX   ",
" XXXX    XXXXXXXXXXXXXXXXXXX       XXXX    XXXXXX    XXXX   XXXXXXX    XXXXX    ",
" XXXXXXXXXXXXXXXXXXXXXXXXXX        XXXXX  XXXXXXX   XXXXX  XXXXXXX    XXXXX     ",
"  XXXXXXXXXXX     XXXXXXX          XXXXXXXXXXXXXX  XXXXXX XXXXXX     XXXXX      ",
"   XXXXXXXX                         XXXXXXXXX XXXXXXXXXXXXXXXXX     XXXXX       ",
"                                      XXXXXX  XXXXXXXXXXXXXXXXX   XXXXXX      X ",
"                                              XXXXXXX XXXXXXXXXXXXXXXXXX   XXXX ",
"                                                       XXXXXXXXXXXXXXXX  XXXXXX ",
"  ooooooooooo                                               XXXXXXXXXXXXXXXXXXX ",
"            ooooooooo                                       XXXXXXXXXXXXXXXXXX  ",
"  OOOOOOOOOOOOOOO    oooooo                        XXXXXXXXXXXXXXXXXXXXXXXX     ",
"                OOOOOOO    oooo                  XXXXXXXXXXXXXXXXXXXX           ",
"         +++          OOOOOO   ooooo             XXXXXXXXXXXXXXXXXXX            ",
"  ++++++++  ++++++++       OOOOOO   ooo          XXXX        XXXXXXX            ",
"                   +++++        OOOOO oooo       XXXXX   XXXXXXXXXX             ",
"                       +++++        OOOO ooo     XXXXXXXXXXXXXXXXX              ",
"                            ++++       OOOO ooo  XXXXXXXXXXXXXX                 ",
"                                ++++      OOOO ooo XXXXXXXXX                    ",
"                                   +++++     OOO  ooo                           ",
"                                       +++     OOO   oo                         ",
"                                          ++      OOO   oo                      ",
"                                            +++     OOOO  oo                    ",
"                                               +++     OOO   o                  ",
"                                                 +++      OOO ooo               ",
"                                                    ++       OOO  o             ",
"                                                      +++      OOO oo           ",
"                                                        +++       OO ooo        ",
"                                                           +++      OO oo       ",
"                                                             +++      OO        ",
"                                                                ++++   OO       ",
"                                                                   +++          ",
"                                                                                ",
"                                                                                "};
